<svg width="36" height="36" viewBox="0 0 36 36" fill="none" xmlns="http://www.w3.org/2000/svg">
<path d="M6.33334 29.3534C5.53126 29.3534 4.84487 29.068 4.27417 28.4973C3.70348 27.9266 3.41764 27.2397 3.41667 26.4367V8.93669C3.41667 8.1346 3.70251 7.44821 4.27417 6.87752C4.84584 6.30682 5.53223 6.02099 6.33334 6.02002H29.6667C30.4688 6.02002 31.1556 6.30585 31.7273 6.87752C32.299 7.44919 32.5843 8.13558 32.5833 8.93669V26.4367C32.5833 27.2388 32.298 27.9256 31.7273 28.4973C31.1566 29.069 30.4697 29.3543 29.6667 29.3534H6.33334ZM18 19.145L29.6667 11.8534V8.93669L18 16.2284L6.33334 8.93669V11.8534L18 19.145Z" fill="white"/>
</svg>
